<?xml version="1.0" encoding="UTF-8" standalone="no"?>
<svg
   xmlns:dc="http://purl.org/dc/elements/1.1/"
   xmlns:cc="http://creativecommons.org/ns#"
   xmlns:rdf="http://www.w3.org/1999/02/22-rdf-syntax-ns#"
   xmlns:svg="http://www.w3.org/2000/svg"
   xmlns="http://www.w3.org/2000/svg"
   width="100%"
   viewBox="0 0 12 14"
   version="1.1">
  <metadata
     id="metadata17">
    <rdf:RDF>
      <cc:Work
         rdf:about="">
        <dc:format>image/svg+xml</dc:format>
        <dc:type
           rdf:resource="http://purl.org/dc/dcmitype/StillImage" />
        <dc:title></dc:title>
      </cc:Work>
    </rdf:RDF>
  </metadata>
  <defs
     id="defs15" />
  <path
     d="m 8.3811212,2.4536005 -3.65125,0.0106 c -0.0952,0 -0.14817,0 -0.23284,0.0212 -0.0741,0.0212 -0.10583,0.0317 -0.17991,0.0741 l 0.78316,0.99484 h 2.96334 z"
     id="segment_e" />
  <path
     d="m 4.1901212,2.6546805 c -0.0529,0.0423 -0.0741,0.0847 -0.10584,0.14817 -0.0318,0.0741 -0.0318,0.10583 -0.0529,0.17992 l -0.96309,3.57716 h 1.13242 l 0.78317,-2.87866 z"
     id="segment_f" />
  <path
     d="m 3.0259512,6.7504305 -0.81492,3.00567 c -0.0529,0.20108 -0.0847,0.3069205 -0.0847,0.4550805 0,0.0423 0,0.0741 0.0106,0.11642 0.0106,0.127 0.0529,0.20108 0.10583,0.28575 l 1.143,-0.9736705 0.77259,-2.88925 z"
     id="segment_k" />
  <path
     d="m 2.3380312,10.740351 c 0.0529,0.0529 0.0741,0.0635 0.127,0.0953 0.0635,0.0317 0.10584,0.0529 0.16934,0.0529 h 4.33916 c 0.11642,0 0.14817,0.0106 0.21167,-0.0529 0.0423,-0.0423 0,0 0.0847,-0.0953 l -0.79375,-0.9842505 h -2.99509 z"
     id="segment_n" />
  <path
     d="m 7.3968712,10.645101 c 0.0318,-0.0423 0.0529,-0.0635 0.0847,-0.11642 0.0318,-0.0635 0.0423,-0.0635 0.0741,-0.15875 l 0.96308,-3.6195005 h -1.143 l -0.77258,2.86809 z"
     id="segment_m" />
  <path
     d="m 9.6722812,2.4641805 -1.143,-0.0106 -1.10066,4.10634 h 1.143 z"
     id="segment_h" />
  <path
     d="m 4.5076212,6.1048505 -0.30692,1.09008 2.87867,0.0106 0.3175,-1.11125 z"
     id="segment_j" />
</svg>
